{
  "accessors": [
    {
      "bufferView": 2,
      "componentType": 5126,
      "count": 1152,
      "max": [
        0.9976199865341187,
        1.00108003616333,
        0.08670999854803085
      ],
      "min": [
        -1.0023800134658813,
        -0.9989200234413147,
        -0.1354600042104721
      ],
      "type": "VEC3"
    },
    {
      "bufferView": 2,
      "byteOffset": 13824,
      "componentType": 5126,
      "count": 1152,
      "max": [
        0.9951844215393066,
        0.9951844215393066,
        1.0
      ],
      "min": [
        -0.9951844215393066,
        -0.9951844215393066,
        -1.0
      ],
      "type": "VEC3"
    },
    {
      "bufferView": 1,
      "componentType": 5126,
      "count": 1152,
      "max": [
        1.0,
        1.0
      ],
      "min": [
        0.0,
        0.0
      ],
      "type": "VEC2"
    },
    {
      "bufferView": 0,
      "componentType": 5125,
      "count": 1896,
      "type": "SCALAR"
    },
    {
      "bufferView": 2,
      "byteOffset": 27648,
      "componentType": 5126,
      "count": 36,
      "max": [
        0.011739999987185001,
        0.0173799991607666,
        -0.002309999894350767
      ],
      "min": [
        -0.016489999368786812,
        -0.01522000040858984,
        -0.09770999848842621
      ],
      "type": "VEC3"
    },
    {
      "bufferView": 2,
      "byteOffset": 28080,
      "componentType": 5126,
      "count": 36,
      "max": [
        1.0,
        0.8660265803337097,
        1.0
      ],
      "min": [
        -1.0,
        -0.8660265803337097,
        -1.0
      ],
      "type": "VEC3"
    },
    {
      "bufferView": 1,
      "byteOffset": 9216,
      "componentType": 5126,
      "count": 36,
      "max": [
        0.34619998931884766,
        0.3986999988555908
      ],
      "min": [
        0.32589998841285706,
        0.3803600072860718
      ],
      "type": "VEC2"
    },
    {
      "bufferView": 0,
      "byteOffset": 7584,
      "componentType": 5125,
      "count": 60,
      "type": "SCALAR"
    },
    {
      "bufferView": 2,
      "byteOffset": 28512,
      "componentType": 5126,
      "count": 30,
      "max": [
        0.19935999810695648,
        0.7834699749946594,
        0.08925999701023102
      ],
      "min": [
        -0.19935999810695648,
        -0.5336099863052368,
        0.051979999989271164
      ],
      "type": "VEC3"
    },
    {
      "bufferView": 2,
      "byteOffset": 28872,
      "componentType": 5126,
      "count": 30,
      "max": [
        0.9886609315872192,
        0.1498301476240158,
        0.9885230660438538
      ],
      "min": [
        -0.9886609315872192,
        -0.8465272188186646,
        -0.9885138869285583
      ],
      "type": "VEC3"
    },
    {
      "bufferView": 1,
      "byteOffset": 9504,
      "componentType": 5126,
      "count": 30,
      "max": [
        0.6553500294685364,
        0.984790027141571
      ],
      "min": [
        0.02589000016450882,
        0.7455099821090698
      ],
      "type": "VEC2"
    },
    {
      "bufferView": 0,
      "byteOffset": 7824,
      "componentType": 5125,
      "count": 42,
      "type": "SCALAR"
    }
  ],
  "asset": {
    "extras": {
      "author": "MasterMek (https://sketchfab.com/MasterMek)",
      "license": "CC-BY-4.0 (http://creativecommons.org/licenses/by/4.0/)",
      "source": "https://sketchfab.com/3d-models/compass-bf221d2c935a47728284af88ed33d0a3",
      "title": "Compass"
    },
    "generator": "Sketchfab-12.64.0",
    "version": "2.0"
  },
  "bufferViews": [
    {
      "buffer": 0,
      "byteLength": 7992,
      "name": "floatBufferViews",
      "target": 34963
    },
    {
      "buffer": 0,
      "byteLength": 9744,
      "byteOffset": 7992,
      "byteStride": 8,
      "name": "floatBufferViews",
      "target": 34962
    },
    {
      "buffer": 0,
      "byteLength": 29232,
      "byteOffset": 17736,
      "byteStride": 12,
      "name": "floatBufferViews",
      "target": 34962
    }
  ],
  "buffers": [
    {
      "byteLength": 46968,
      "uri": "scene.bin"
    }
  ],
  "extensionsUsed": [
    "KHR_materials_unlit"
  ],
  "images": [
    {
      "uri": "textures/Material.001_baseColor.png"
    }
  ],
  "materials": [
    {
      "alphaMode": "BLEND",
      "doubleSided": true,
      "extensions": {
        "KHR_materials_unlit": {}
      },
      "name": "Material.001",
      "pbrMetallicRoughness": {
        "baseColorTexture": {
          "index": 0
        },
        "metallicFactor": 0.0
      }
    },
    {
      "alphaMode": "BLEND",
      "doubleSided": true,
      "extensions": {
        "KHR_materials_unlit": {}
      },
      "name": "Material.002",
      "pbrMetallicRoughness": {
        "baseColorTexture": {
          "index": 0
        },
        "metallicFactor": 0.0
      }
    },
    {
      "doubleSided": true,
      "extensions": {
        "KHR_materials_unlit": {}
      },
      "name": "Material",
      "pbrMetallicRoughness": {
        "baseColorFactor": [
          0.02197830192744732,
          0.02197830192744732,
          0.02197830192744732,
          1.0
        ],
        "metallicFactor": 0.0
      }
    }
  ],
  "meshes": [
    {
      "name": "case_0",
      "primitives": [
        {
          "attributes": {
            "NORMAL": 1,
            "POSITION": 0,
            "TEXCOORD_0": 2
          },
          "indices": 3,
          "material": 1,
          "mode": 4
        }
      ]
    },
    {
      "name": "case_1",
      "primitives": [
        {
          "attributes": {
            "NORMAL": 5,
            "POSITION": 4,
            "TEXCOORD_0": 6
          },
          "indices": 7,
          "material": 2,
          "mode": 4
        }
      ]
    },
    {
      "name": "arrow_0",
      "primitives": [
        {
          "attributes": {
            "NORMAL": 9,
            "POSITION": 8,
            "TEXCOORD_0": 10
          },
          "indices": 11,
          "material": 0,
          "mode": 4
        }
      ]
    }
  ],
  "nodes": [
    {
      "children": [
        1
      ],
      "matrix": [
        1.0,
        0.0,
        0.0,
        0.0,
        0.0,
        2.220446049250313e-16,
        -1.0,
        0.0,
        0.0,
        1.0,
        2.220446049250313e-16,
        0.0,
        0.0,
        0.0,
        0.0,
        1.0
      ],
      "name": "Sketchfab_model"
    },
    {
      "children": [
        2,
        5
      ],
      "name": "Root"
    },
    {
      "children": [
        3,
        4
      ],
      "matrix": [
        1.0,
        0.0,
        0.0,
        0.0,
        0.0,
        1.0,
        0.0,
        0.0,
        0.0,
        0.0,
        1.9522199999999998,
        0.0,
        0.0023800000000000006,
        -0.0010800000000000002,
        0.09282000000000003,
        1.0
      ],
      "name": "case"
    },
    {
      "mesh": 0,
      "name": "case_0"
    },
    {
      "mesh": 1,
      "name": "case_1"
    },
    {
      "children": [
        6
      ],
      "matrix": [
        1.0,
        0.0,
        0.0,
        0.0,
        0.0,
        1.0,
        0.0,
        0.0,
        0.0,
        0.0,
        1.9522199999999998,
        0.0,
        0.0,
        0.0,
        -0.09246000000000003,
        1.0
      ],
      "name": "arrow"
    },
    {
      "mesh": 2,
      "name": "arrow_0"
    }
  ],
  "samplers": [
    {
      "magFilter": 9729,
      "minFilter": 9987,
      "wrapS": 10497,
      "wrapT": 10497
    }
  ],
  "scene": 0,
  "scenes": [
    {
      "name": "Sketchfab_Scene",
      "nodes": [
        0
      ]
    }
  ],
  "textures": [
    {
      "sampler": 0,
      "source": 0
    }
  ]
}
