{
  "accessors": [
    {
      "bufferView": 2,
      "componentType": 5126,
      "count": 65532,
      "max": [
        28.8512020111084,
        276.6758117675781,
        24.059858322143555
      ],
      "min": [
        -32.631771087646484,
        36.793399810791016,
        -162.53643798828125
      ],
      "type": "VEC3"
    },
    {
      "bufferView": 2,
      "byteOffset": 786384,
      "componentType": 5126,
      "count": 65532,
      "max": [
        0.9999876618385315,
        0.9996623992919922,
        0.9999999403953552
      ],
      "min": [
        -0.9999863505363464,
        -0.999992847442627,
        -0.9999820590019226
      ],
      "type": "VEC3"
    },
    {
      "bufferView": 0,
      "componentType": 5125,
      "count": 203622,
      "type": "SCALAR"
    },
    {
      "bufferView": 2,
      "byteOffset": 1572768,
      "componentType": 5126,
      "count": 65532,
      "max": [
        62.169307708740234,
        276.9554748535156,
        24.077207565307617
      ],
      "min": [
        -19.109086990356445,
        12.076881408691406,
        -100.35881805419922
      ],
      "type": "VEC3"
    },
    {
      "bufferView": 2,
      "byteOffset": 2359152,
      "componentType": 5126,
      "count": 65532,
      "max": [
        0.9999862909317017,
        0.9999053478240967,
        1.0
      ],
      "min": [
        -0.9999778270721436,
        -0.9997225999832153,
        -0.9999820590019226
      ],
      "type": "VEC3"
    },
    {
      "bufferView": 0,
      "byteOffset": 814488,
      "componentType": 5125,
      "count": 213255,
      "type": "SCALAR"
    },
    {
      "bufferView": 2,
      "byteOffset": 3145536,
      "componentType": 5126,
      "count": 65532,
      "max": [
        92.30586242675781,
        291.8035888671875,
        50.95075607299805
      ],
      "min": [
        -12.125044822692871,
        12.076881408691406,
        -99.77921295166016
      ],
      "type": "VEC3"
    },
    {
      "bufferView": 2,
      "byteOffset": 3931920,
      "componentType": 5126,
      "count": 65532,
      "max": [
        0.9999862909317017,
        0.9985329508781433,
        1.0
      ],
      "min": [
        -0.9999778270721436,
        -0.9997225999832153,
        -0.9999372959136963
      ],
      "type": "VEC3"
    },
    {
      "bufferView": 0,
      "byteOffset": 1667508,
      "componentType": 5125,
      "count": 250908,
      "type": "SCALAR"
    },
    {
      "bufferView": 2,
      "byteOffset": 4718304,
      "componentType": 5126,
      "count": 65532,
      "max": [
        28.891822814941406,
        276.9382019042969,
        21.169328689575195
      ],
      "min": [
        -36.69542694091797,
        36.45994567871094,
        -160.851318359375
      ],
      "type": "VEC3"
    },
    {
      "bufferView": 2,
      "byteOffset": 5504688,
      "componentType": 5126,
      "count": 65532,
      "max": [
        0.9999943971633911,
        0.9997462034225464,
        0.999977171421051
      ],
      "min": [
        -0.9999974966049194,
        -0.999992847442627,
        -0.9999645948410034
      ],
      "type": "VEC3"
    },
    {
      "bufferView": 0,
      "byteOffset": 2671140,
      "componentType": 5125,
      "count": 281118,
      "type": "SCALAR"
    },
    {
      "bufferView": 2,
      "byteOffset": 6291072,
      "componentType": 5126,
      "count": 65532,
      "max": [
        -0.21539369225502014,
        276.6054382324219,
        54.13984298706055
      ],
      "min": [
        -86.20143127441406,
        109.07938385009766,
        -161.73052978515625
      ],
      "type": "VEC3"
    },
    {
      "bufferView": 2,
      "byteOffset": 7077456,
      "componentType": 5126,
      "count": 65532,
      "max": [
        0.9999876618385315,
        0.9999980926513672,
        0.999991238117218
      ],
      "min": [
        -0.9999931454658508,
        -0.9999424815177917,
        -0.9999645948410034
      ],
      "type": "VEC3"
    },
    {
      "bufferView": 0,
      "byteOffset": 3795612,
      "componentType": 5125,
      "count": 300888,
      "type": "SCALAR"
    },
    {
      "bufferView": 2,
      "byteOffset": 7863840,
      "componentType": 5126,
      "count": 65532,
      "max": [
        91.05130004882813,
        291.8042297363281,
        49.56192398071289
      ],
      "min": [
        -53.362911224365234,
        12.594701766967773,
        -162.53643798828125
      ],
      "type": "VEC3"
    },
    {
      "bufferView": 2,
      "byteOffset": 8650224,
      "componentType": 5126,
      "count": 65532,
      "max": [
        0.9999769330024719,
        0.9996623992919922,
        0.9999999403953552
      ],
      "min": [
        -0.9999844431877136,
        -0.9998849630355835,
        -0.9999063611030579
      ],
      "type": "VEC3"
    },
    {
      "bufferView": 0,
      "byteOffset": 4999164,
      "componentType": 5125,
      "count": 229602,
      "type": "SCALAR"
    },
    {
      "bufferView": 2,
      "byteOffset": 9436608,
      "componentType": 5126,
      "count": 42308,
      "max": [
        92.19206237792969,
        291.6295166015625,
        50.355831146240234
      ],
      "min": [
        -7.43997859954834,
        14.405858039855957,
        -100.37971496582031
      ],
      "type": "VEC3"
    },
    {
      "bufferView": 2,
      "byteOffset": 9944304,
      "componentType": 5126,
      "count": 42308,
      "max": [
        0.9999434947967529,
        0.9999053478240967,
        0.9996852278709412
      ],
      "min": [
        -0.9998453855514526,
        -0.9977820515632629,
        -0.9999722838401794
      ],
      "type": "VEC3"
    },
    {
      "bufferView": 0,
      "byteOffset": 5917572,
      "componentType": 5125,
      "count": 141657,
      "type": "SCALAR"
    },
    {
      "bufferView": 2,
      "byteOffset": 10452000,
      "componentType": 5126,
      "count": 8511,
      "max": [
        0.3373049199581146,
        268.67657470703125,
        -2.3180508613586426
      ],
      "min": [
        -3.9447243213653564,
        264.3945617675781,
        -6.600074291229248
      ],
      "type": "VEC3"
    },
    {
      "bufferView": 2,
      "byteOffset": 10554132,
      "componentType": 5126,
      "count": 8511,
      "max": [
        1.0,
        1.0,
        1.0
      ],
      "min": [
        -1.0,
        -1.0,
        -1.0
      ],
      "type": "VEC3"
    },
    {
      "bufferView": 1,
      "componentType": 5126,
      "count": 8511,
      "max": [
        1.0,
        1.0
      ],
      "min": [
        0.0,
        0.0
      ],
      "type": "VEC2"
    },
    {
      "bufferView": 0,
      "byteOffset": 6484200,
      "componentType": 5125,
      "count": 48384,
      "type": "SCALAR"
    },
    {
      "bufferView": 2,
      "byteOffset": 10656264,
      "componentType": 5126,
      "count": 8511,
      "max": [
        -8.756701469421387,
        267.7870178222656,
        -0.06772765517234802
      ],
      "min": [
        -13.037261009216309,
        263.5632629394531,
        -4.240906715393066
      ],
      "type": "VEC3"
    },
    {
      "bufferView": 2,
      "byteOffset": 10758396,
      "componentType": 5126,
      "count": 8511,
      "max": [
        0.9999923706054688,
        0.9998154044151306,
        0.999817430973053
      ],
      "min": [
        -0.9999926090240479,
        -0.9998164176940918,
        -0.9998171329498291
      ],
      "type": "VEC3"
    },
    {
      "bufferView": 1,
      "byteOffset": 68088,
      "componentType": 5126,
      "count": 8511,
      "max": [
        1.0,
        1.0
      ],
      "min": [
        0.0,
        0.0
      ],
      "type": "VEC2"
    },
    {
      "bufferView": 0,
      "byteOffset": 6677736,
      "componentType": 5125,
      "count": 48384,
      "type": "SCALAR"
    }
  ],
  "asset": {
    "extras": {
      "author": "SculptCuteness (https://sketchfab.com/SculptCuteness)",
      "license": "SKETCHFAB Standard (https://sketchfab.com/licenses)",
      "source": "https://sketchfab.com/3d-models/female-base-mesh-posed-free-3d-model-1fb5446027ee4491a62ad945386191bd",
      "title": "Female base mesh posed free 3d model"
    },
    "generator": "Sketchfab-15.77.0",
    "version": "2.0"
  },
  "bufferViews": [
    {
      "buffer": 0,
      "byteLength": 6871272,
      "name": "floatBufferViews",
      "target": 34963
    },
    {
      "buffer": 0,
      "byteLength": 136176,
      "byteOffset": 6871272,
      "byteStride": 8,
      "name": "floatBufferViews",
      "target": 34962
    },
    {
      "buffer": 0,
      "byteLength": 10860528,
      "byteOffset": 7007448,
      "byteStride": 12,
      "name": "floatBufferViews",
      "target": 34962
    }
  ],
  "buffers": [
    {
      "byteLength": 17867976,
      "uri": ".bin"
    }
  ],
  "materials": [
    {
      "doubleSided": true,
      "name": "MainBody",
      "pbrMetallicRoughness": {
        "baseColorFactor": [
          0.5,
          0.5,
          0.5,
          1.0
        ],
        "metallicFactor": 0.0
      }
    },
    {
      "doubleSided": true,
      "name": "LeftEye",
      "pbrMetallicRoughness": {
        "baseColorFactor": [
          0.5,
          0.5,
          0.5,
          1.0
        ],
        "metallicFactor": 0.0
      }
    },
    {
      "doubleSided": true,
      "name": "RightEye",
      "pbrMetallicRoughness": {
        "baseColorFactor": [
          0.5,
          0.5,
          0.5,
          1.0
        ],
        "metallicFactor": 0.0
      }
    }
  ],
  "meshes": [
    {
      "name": "MainBody_MainBody_0",
      "primitives": [
        {
          "attributes": {
            "NORMAL": 1,
            "POSITION": 0
          },
          "indices": 2,
          "material": 0,
          "mode": 4
        }
      ]
    },
    {
      "name": "MainBody_MainBody_0",
      "primitives": [
        {
          "attributes": {
            "NORMAL": 4,
            "POSITION": 3
          },
          "indices": 5,
          "material": 0,
          "mode": 4
        }
      ]
    },
    {
      "name": "MainBody_MainBody_0",
      "primitives": [
        {
          "attributes": {
            "NORMAL": 7,
            "POSITION": 6
          },
          "indices": 8,
          "material": 0,
          "mode": 4
        }
      ]
    },
    {
      "name": "MainBody_MainBody_0",
      "primitives": [
        {
          "attributes": {
            "NORMAL": 10,
            "POSITION": 9
          },
          "indices": 11,
          "material": 0,
          "mode": 4
        }
      ]
    },
    {
      "name": "MainBody_MainBody_0",
      "primitives": [
        {
          "attributes": {
            "NORMAL": 13,
            "POSITION": 12
          },
          "indices": 14,
          "material": 0,
          "mode": 4
        }
      ]
    },
    {
      "name": "MainBody_MainBody_0",
      "primitives": [
        {
          "attributes": {
            "NORMAL": 16,
            "POSITION": 15
          },
          "indices": 17,
          "material": 0,
          "mode": 4
        }
      ]
    },
    {
      "name": "MainBody_MainBody_0",
      "primitives": [
        {
          "attributes": {
            "NORMAL": 19,
            "POSITION": 18
          },
          "indices": 20,
          "material": 0,
          "mode": 4
        }
      ]
    },
    {
      "name": "LeftEye_LeftEye_0",
      "primitives": [
        {
          "attributes": {
            "NORMAL": 22,
            "POSITION": 21,
            "TEXCOORD_0": 23
          },
          "indices": 24,
          "material": 1,
          "mode": 4
        }
      ]
    },
    {
      "name": "RightEye_RightEye_0",
      "primitives": [
        {
          "attributes": {
            "NORMAL": 26,
            "POSITION": 25,
            "TEXCOORD_0": 27
          },
          "indices": 28,
          "material": 2,
          "mode": 4
        }
      ]
    }
  ],
  "nodes": [
    {
      "children": [
        1
      ],
      "matrix": [
        1.0,
        0.0,
        0.0,
        0.0,
        0.0,
        2.220446049250313e-16,
        -1.0,
        0.0,
        0.0,
        1.0,
        2.220446049250313e-16,
        0.0,
        0.0,
        0.0,
        0.0,
        1.0
      ],
      "name": "Sketchfab_model"
    },
    {
      "children": [
        2
      ],
      "matrix": [
        0.009999999776482582,
        0.0,
        0.0,
        0.0,
        0.0,
        0.0,
        0.009999999776482582,
        0.0,
        0.0,
        -0.009999999776482582,
        0.0,
        0.0,
        0.0,
        0.0,
        0.0,
        1.0
      ],
      "name": "05b250833a354f44b16bc8945b1dddae.fbx"
    },
    {
      "children": [
        3,
        11,
        13
      ],
      "name": "RootNode"
    },
    {
      "children": [
        4,
        5,
        6,
        7,
        8,
        9,
        10
      ],
      "name": "MainBody"
    },
    {
      "mesh": 0,
      "name": "MainBody_MainBody_0"
    },
    {
      "mesh": 1,
      "name": "MainBody_MainBody_0"
    },
    {
      "mesh": 2,
      "name": "MainBody_MainBody_0"
    },
    {
      "mesh": 3,
      "name": "MainBody_MainBody_0"
    },
    {
      "mesh": 4,
      "name": "MainBody_MainBody_0"
    },
    {
      "mesh": 5,
      "name": "MainBody_MainBody_0"
    },
    {
      "mesh": 6,
      "name": "MainBody_MainBody_0"
    },
    {
      "children": [
        12
      ],
      "name": "LeftEye"
    },
    {
      "mesh": 7,
      "name": "LeftEye_LeftEye_0"
    },
    {
      "children": [
        14
      ],
      "name": "RightEye"
    },
    {
      "mesh": 8,
      "name": "RightEye_RightEye_0"
    }
  ],
  "scene": 0,
  "scenes": [
    {
      "name": "Sketchfab_Scene",
      "nodes": [
        0
      ]
    }
  ]
}
