{
  "accessors": [
    {
      "bufferView": 2,
      "componentType": 5126,
      "count": 1197,
      "max": [
        0.029994994401931763,
        0.02999500185251236,
        0.08343717455863953
      ],
      "min": [
        -0.029995005577802658,
        -0.029995005577802658,
        0.008526600897312164
      ],
      "type": "VEC3"
    },
    {
      "bufferView": 2,
      "byteOffset": 14364,
      "componentType": 5126,
      "count": 1197,
      "max": [
        0.999997615814209,
        0.999997615814209,
        1.0
      ],
      "min": [
        -0.999997615814209,
        -0.999997615814209,
        -1.0
      ],
      "type": "VEC3"
    },
    {
      "bufferView": 3,
      "componentType": 5126,
      "count": 1197,
      "max": [
        0.9998085498809814,
        1.0,
        0.9729387760162354,
        1.0
      ],
      "min": [
        -0.9999804496765137,
        -1.0,
        -0.9999979138374329,
        1.0
      ],
      "type": "VEC4"
    },
    {
      "bufferView": 1,
      "componentType": 5126,
      "count": 1197,
      "max": [
        0.6680117845535278,
        0.9793235063552856
      ],
      "min": [
        0.03461932763457298,
        0.010011491365730762
      ],
      "type": "VEC2"
    },
    {
      "bufferView": 1,
      "byteOffset": 9576,
      "componentType": 5126,
      "count": 1197,
      "max": [
        0.6680117845535278,
        0.9793235063552856
      ],
      "min": [
        0.03461932763457298,
        0.010011491365730762
      ],
      "type": "VEC2"
    },
    {
      "bufferView": 1,
      "byteOffset": 19152,
      "componentType": 5126,
      "count": 1197,
      "max": [
        0.6680117845535278,
        0.9793235063552856
      ],
      "min": [
        0.03461932763457298,
        0.010011491365730762
      ],
      "type": "VEC2"
    },
    {
      "bufferView": 0,
      "componentType": 5125,
      "count": 6240,
      "type": "SCALAR"
    },
    {
      "bufferView": 2,
      "byteOffset": 28728,
      "componentType": 5126,
      "count": 1570,
      "max": [
        0.014109416864812374,
        0.014110085554420948,
        0.051748357713222504
      ],
      "min": [
        -0.014109295792877674,
        -0.014108626171946526,
        -0.016851793974637985
      ],
      "type": "VEC3"
    },
    {
      "bufferView": 2,
      "byteOffset": 47568,
      "componentType": 5126,
      "count": 1570,
      "max": [
        1.0,
        1.0,
        1.0
      ],
      "min": [
        -1.0,
        -1.0,
        -1.0
      ],
      "type": "VEC3"
    },
    {
      "bufferView": 3,
      "byteOffset": 19152,
      "componentType": 5126,
      "count": 1570,
      "max": [
        0.9982627034187317,
        0.9975749850273132,
        0.999835193157196,
        1.0
      ],
      "min": [
        -0.9998012185096741,
        -0.9975298643112183,
        -0.9999935030937195,
        1.0
      ],
      "type": "VEC4"
    },
    {
      "bufferView": 1,
      "byteOffset": 28728,
      "componentType": 5126,
      "count": 1570,
      "max": [
        0.9480299353599548,
        0.9579821228981018
      ],
      "min": [
        0.6880347728729248,
        0.07645262777805328
      ],
      "type": "VEC2"
    },
    {
      "bufferView": 1,
      "byteOffset": 41288,
      "componentType": 5126,
      "count": 1570,
      "max": [
        0.9480299353599548,
        0.9579821228981018
      ],
      "min": [
        0.6880347728729248,
        0.07645262777805328
      ],
      "type": "VEC2"
    },
    {
      "bufferView": 1,
      "byteOffset": 53848,
      "componentType": 5126,
      "count": 1570,
      "max": [
        0.9480299353599548,
        0.9579821228981018
      ],
      "min": [
        0.6880347728729248,
        0.07645262777805328
      ],
      "type": "VEC2"
    },
    {
      "bufferView": 1,
      "byteOffset": 66408,
      "componentType": 5126,
      "count": 1570,
      "max": [
        0.9480299353599548,
        0.9579821228981018
      ],
      "min": [
        0.6880347728729248,
        0.07645262777805328
      ],
      "type": "VEC2"
    },
    {
      "bufferView": 0,
      "byteOffset": 24960,
      "componentType": 5125,
      "count": 6876,
      "type": "SCALAR"
    }
  ],
  "asset": {
    "extras": {
      "author": "White_sniper (https://sketchfab.com/White_sniper)",
      "license": "CC-BY-4.0 (http://creativecommons.org/licenses/by/4.0/)",
      "source": "https://sketchfab.com/3d-models/light-bulb-02618a49c8e44df98fa55f2ff2661501",
      "title": "light bulb"
    },
    "generator": "Sketchfab-15.77.0",
    "version": "2.0"
  },
  "bufferViews": [
    {
      "buffer": 0,
      "byteLength": 52464,
      "name": "floatBufferViews",
      "target": 34963
    },
    {
      "buffer": 0,
      "byteLength": 78968,
      "byteOffset": 52464,
      "byteStride": 8,
      "name": "floatBufferViews",
      "target": 34962
    },
    {
      "buffer": 0,
      "byteLength": 66408,
      "byteOffset": 131432,
      "byteStride": 12,
      "name": "floatBufferViews",
      "target": 34962
    },
    {
      "buffer": 0,
      "byteLength": 44272,
      "byteOffset": 197840,
      "byteStride": 16,
      "name": "floatBufferViews",
      "target": 34962
    }
  ],
  "buffers": [
    {
      "byteLength": 242112,
      "uri": "scene.bin"
    }
  ],
  "extensionsUsed": [
    "KHR_materials_emissive_strength"
  ],
  "images": [
    {
      "uri": "textures/lightbulb_01_glass_baseColor.png"
    },
    {
      "uri": "textures/lightbulb_01_glass_metallicRoughness.png"
    },
    {
      "uri": "textures/lightbulb_01_glass_emissive.jpeg"
    },
    {
      "uri": "textures/lightbulb_01_glass_normal.png"
    },
    {
      "uri": "textures/lightbulb_01_base_baseColor.jpeg"
    }
  ],
  "materials": [
    {
      "alphaMode": "BLEND",
      "doubleSided": true,
      "emissiveFactor": [
        1.0,
        1.0,
        1.0
      ],
      "emissiveTexture": {
        "index": 2
      },
      "extensions": {
        "KHR_materials_emissive_strength": {
          "emissiveStrength": 10.0
        }
      },
      "name": "lightbulb_01_glass",
      "normalTexture": {
        "index": 3
      },
      "pbrMetallicRoughness": {
        "baseColorTexture": {
          "index": 0
        },
        "metallicRoughnessTexture": {
          "index": 1
        }
      }
    },
    {
      "doubleSided": true,
      "emissiveFactor": [
        1.0,
        1.0,
        1.0
      ],
      "emissiveTexture": {
        "index": 2
      },
      "extensions": {
        "KHR_materials_emissive_strength": {
          "emissiveStrength": 10.0
        }
      },
      "name": "lightbulb_01_base",
      "normalTexture": {
        "index": 3
      },
      "pbrMetallicRoughness": {
        "baseColorTexture": {
          "index": 4
        },
        "metallicRoughnessTexture": {
          "index": 1
        }
      }
    }
  ],
  "meshes": [
    {
      "name": "lightbulb_01_lightbulb_01_glass_0",
      "primitives": [
        {
          "attributes": {
            "NORMAL": 1,
            "POSITION": 0,
            "TANGENT": 2,
            "TEXCOORD_0": 3,
            "TEXCOORD_1": 4,
            "TEXCOORD_2": 5
          },
          "indices": 6,
          "material": 0,
          "mode": 4
        }
      ]
    },
    {
      "name": "lightbulb_01_lightbulb_01_base_0",
      "primitives": [
        {
          "attributes": {
            "NORMAL": 8,
            "POSITION": 7,
            "TANGENT": 9,
            "TEXCOORD_0": 10,
            "TEXCOORD_1": 11,
            "TEXCOORD_2": 12,
            "TEXCOORD_3": 13
          },
          "indices": 14,
          "material": 1,
          "mode": 4
        }
      ]
    }
  ],
  "nodes": [
    {
      "children": [
        1
      ],
      "matrix": [
        11.104778289794922,
        0.0,
        0.0,
        0.0,
        0.0,
        2.4657561081375783e-15,
        -11.104778289794922,
        0.0,
        0.0,
        11.104778289794922,
        2.4657561081375783e-15,
        0.0,
        0.0,
        0.0,
        0.0,
        1.0
      ],
      "name": "Sketchfab_model"
    },
    {
      "children": [
        2
      ],
      "matrix": [
        0.009999999776482582,
        0.0,
        0.0,
        0.0,
        0.0,
        0.0,
        0.009999999776482582,
        0.0,
        0.0,
        -0.009999999776482582,
        0.0,
        0.0,
        0.0,
        0.0,
        0.0,
        1.0
      ],
      "name": "5910df8ddb2f4273ba1f6329ccf3f707.fbx"
    },
    {
      "children": [
        3
      ],
      "name": "RootNode"
    },
    {
      "children": [
        4,
        5
      ],
      "matrix": [
        100.0,
        0.0,
        0.0,
        0.0,
        0.0,
        -1.629206793918314e-05,
        -99.99999999999868,
        0.0,
        0.0,
        99.99999999999868,
        -1.629206793918314e-05,
        0.0,
        0.0,
        0.0,
        0.0,
        1.0
      ],
      "name": "lightbulb_01"
    },
    {
      "mesh": 0,
      "name": "lightbulb_01_lightbulb_01_glass_0"
    },
    {
      "mesh": 1,
      "name": "lightbulb_01_lightbulb_01_base_0"
    }
  ],
  "samplers": [
    {
      "magFilter": 9729,
      "minFilter": 9987,
      "wrapS": 10497,
      "wrapT": 10497
    }
  ],
  "scene": 0,
  "scenes": [
    {
      "name": "Sketchfab_Scene",
      "nodes": [
        0
      ]
    }
  ],
  "textures": [
    {
      "sampler": 0,
      "source": 0
    },
    {
      "sampler": 0,
      "source": 1
    },
    {
      "sampler": 0,
      "source": 2
    },
    {
      "sampler": 0,
      "source": 3
    },
    {
      "sampler": 0,
      "source": 4
    }
  ]
}
