{
  "accessors": [
    {
      "bufferView": 1,
      "componentType": 5126,
      "count": 65532,
      "max": [
        50.02467727661133,
        25.399999618530273,
        73.59293365478516
      ],
      "min": [
        -4.355744749773294e-06,
        0.07656136900186539,
        3.5822755307890475e-05
      ],
      "type": "VEC3"
    },
    {
      "bufferView": 1,
      "byteOffset": 786384,
      "componentType": 5126,
      "count": 65532,
      "max": [
        0.9998817443847656,
        0.9998271465301514,
        0.9999741911888123
      ],
      "min": [
        -0.9998736381530762,
        -0.999980092048645,
        -0.9999026656150818
      ],
      "type": "VEC3"
    },
    {
      "bufferView": 2,
      "componentType": 5126,
      "count": 65532,
      "max": [
        0.49803921580314636,
        0.49803921580314636,
        0.49803921580314636,
        0.125490203499794
      ],
      "min": [
        0.49803921580314636,
        0.49803921580314636,
        0.49803921580314636,
        0.125490203499794
      ],
      "type": "VEC4"
    },
    {
      "bufferView": 0,
      "componentType": 5125,
      "count": 357189,
      "type": "SCALAR"
    },
    {
      "bufferView": 1,
      "byteOffset": 1572768,
      "componentType": 5126,
      "count": 65532,
      "max": [
        62.005615234375,
        25.312381744384766,
        73.89038848876953
      ],
      "min": [
        0.13217556476593018,
        5.628644430544227e-07,
        0.0035567795857787132
      ],
      "type": "VEC3"
    },
    {
      "bufferView": 1,
      "byteOffset": 2359152,
      "componentType": 5126,
      "count": 65532,
      "max": [
        0.9997696876525879,
        0.9998270869255066,
        0.9999741911888123
      ],
      "min": [
        -0.9999234676361084,
        -0.9999287724494934,
        -0.9999496936798096
      ],
      "type": "VEC3"
    },
    {
      "bufferView": 2,
      "byteOffset": 1048512,
      "componentType": 5126,
      "count": 65532,
      "max": [
        0.49803921580314636,
        0.49803921580314636,
        0.49803921580314636,
        0.125490203499794
      ],
      "min": [
        0.49803921580314636,
        0.49803921580314636,
        0.49803921580314636,
        0.125490203499794
      ],
      "type": "VEC4"
    },
    {
      "bufferView": 0,
      "byteOffset": 1428756,
      "componentType": 5125,
      "count": 340431,
      "type": "SCALAR"
    },
    {
      "bufferView": 1,
      "byteOffset": 3145536,
      "componentType": 5126,
      "count": 65532,
      "max": [
        63.393638610839844,
        25.399999618530273,
        73.89038848876953
      ],
      "min": [
        13.246347427368164,
        5.628644430544227e-07,
        3.5822755307890475e-05
      ],
      "type": "VEC3"
    },
    {
      "bufferView": 1,
      "byteOffset": 3931920,
      "componentType": 5126,
      "count": 65532,
      "max": [
        0.9999974370002747,
        0.9999969601631165,
        0.9999741911888123
      ],
      "min": [
        -0.9999685287475586,
        -0.9999709725379944,
        -0.9999498724937439
      ],
      "type": "VEC3"
    },
    {
      "bufferView": 2,
      "byteOffset": 2097024,
      "componentType": 5126,
      "count": 65532,
      "max": [
        0.49803921580314636,
        0.49803921580314636,
        0.49803921580314636,
        0.125490203499794
      ],
      "min": [
        0.49803921580314636,
        0.49803921580314636,
        0.49803921580314636,
        0.125490203499794
      ],
      "type": "VEC4"
    },
    {
      "bufferView": 0,
      "byteOffset": 2790480,
      "componentType": 5125,
      "count": 313692,
      "type": "SCALAR"
    },
    {
      "bufferView": 1,
      "byteOffset": 4718304,
      "componentType": 5126,
      "count": 65532,
      "max": [
        62.85078811645508,
        25.312381744384766,
        73.7120361328125
      ],
      "min": [
        0.04544799402356148,
        0.08352526277303696,
        0.13904960453510284
      ],
      "type": "VEC3"
    },
    {
      "bufferView": 1,
      "byteOffset": 5504688,
      "componentType": 5126,
      "count": 65532,
      "max": [
        0.9999974370002747,
        0.9999969601631165,
        0.9999741911888123
      ],
      "min": [
        -0.9999815225601196,
        -0.9999985098838806,
        -0.9999980330467224
      ],
      "type": "VEC3"
    },
    {
      "bufferView": 2,
      "byteOffset": 3145536,
      "componentType": 5126,
      "count": 65532,
      "max": [
        0.49803921580314636,
        0.49803921580314636,
        0.49803921580314636,
        0.125490203499794
      ],
      "min": [
        0.49803921580314636,
        0.49803921580314636,
        0.49803921580314636,
        0.125490203499794
      ],
      "type": "VEC4"
    },
    {
      "bufferView": 0,
      "byteOffset": 4045248,
      "componentType": 5125,
      "count": 285669,
      "type": "SCALAR"
    },
    {
      "bufferView": 1,
      "byteOffset": 6291072,
      "componentType": 5126,
      "count": 51991,
      "max": [
        43.404014587402344,
        17.953876495361328,
        75.65179443359375
      ],
      "min": [
        19.989587783813477,
        4.211895942687988,
        50.7380485534668
      ],
      "type": "VEC3"
    },
    {
      "bufferView": 1,
      "byteOffset": 6914964,
      "componentType": 5126,
      "count": 51991,
      "max": [
        0.9999809861183167,
        0.9999665021896362,
        0.9999687671661377
      ],
      "min": [
        -0.9999815225601196,
        -0.9997608661651611,
        -0.9999585747718811
      ],
      "type": "VEC3"
    },
    {
      "bufferView": 2,
      "byteOffset": 4194048,
      "componentType": 5126,
      "count": 51991,
      "max": [
        0.49803921580314636,
        0.49803921580314636,
        0.49803921580314636,
        0.125490203499794
      ],
      "min": [
        0.49803921580314636,
        0.49803921580314636,
        0.49803921580314636,
        0.125490203499794
      ],
      "type": "VEC4"
    },
    {
      "bufferView": 0,
      "byteOffset": 5187924,
      "componentType": 5125,
      "count": 288693,
      "type": "SCALAR"
    }
  ],
  "asset": {
    "extras": {
      "author": "tunosemi (https://sketchfab.com/tunosemi)",
      "license": "CC-BY-NC-ND-4.0 (http://creativecommons.org/licenses/by-nc-nd/4.0/)",
      "source": "https://sketchfab.com/3d-models/atta-vollenweideri-e68268b2884a48b68855261a1c77357a",
      "title": "Atta vollenweideri"
    },
    "generator": "Sketchfab-15.74.0",
    "version": "2.0"
  },
  "bufferViews": [
    {
      "buffer": 0,
      "byteLength": 6342696,
      "name": "floatBufferViews",
      "target": 34963
    },
    {
      "buffer": 0,
      "byteLength": 7538856,
      "byteOffset": 6342696,
      "byteStride": 12,
      "name": "floatBufferViews",
      "target": 34962
    },
    {
      "buffer": 0,
      "byteLength": 5025904,
      "byteOffset": 13881552,
      "byteStride": 16,
      "name": "floatBufferViews",
      "target": 34962
    }
  ],
  "buffers": [
    {
      "byteLength": 18907456,
      "uri": "scene.bin"
    }
  ],
  "extensionsUsed": [
    "KHR_materials_specular"
  ],
  "materials": [
    {
      "doubleSided": true,
      "extensions": {
        "KHR_materials_specular": {
          "specularColorFactor": [
            1.0,
            1.0,
            1.0
          ],
          "specularFactor": 0.6628591629993539
        }
      },
      "name": "Scene_-_Root",
      "pbrMetallicRoughness": {
        "metallicFactor": 0.278857992710073,
        "roughnessFactor": 0.6
      }
    }
  ],
  "meshes": [
    {
      "name": "Object_0",
      "primitives": [
        {
          "attributes": {
            "COLOR_0": 2,
            "NORMAL": 1,
            "POSITION": 0
          },
          "indices": 3,
          "material": 0,
          "mode": 4
        }
      ]
    },
    {
      "name": "Object_1",
      "primitives": [
        {
          "attributes": {
            "COLOR_0": 6,
            "NORMAL": 5,
            "POSITION": 4
          },
          "indices": 7,
          "material": 0,
          "mode": 4
        }
      ]
    },
    {
      "name": "Object_2",
      "primitives": [
        {
          "attributes": {
            "COLOR_0": 10,
            "NORMAL": 9,
            "POSITION": 8
          },
          "indices": 11,
          "material": 0,
          "mode": 4
        }
      ]
    },
    {
      "name": "Object_3",
      "primitives": [
        {
          "attributes": {
            "COLOR_0": 14,
            "NORMAL": 13,
            "POSITION": 12
          },
          "indices": 15,
          "material": 0,
          "mode": 4
        }
      ]
    },
    {
      "name": "Object_4",
      "primitives": [
        {
          "attributes": {
            "COLOR_0": 18,
            "NORMAL": 17,
            "POSITION": 16
          },
          "indices": 19,
          "material": 0,
          "mode": 4
        }
      ]
    }
  ],
  "nodes": [
    {
      "children": [
        1
      ],
      "name": "Sketchfab_model"
    },
    {
      "children": [
        2,
        3,
        4,
        5,
        6
      ],
      "name": "Atta_vollenweideri.stl.cleaner.materialmerger.gles"
    },
    {
      "mesh": 0,
      "name": "Object_2"
    },
    {
      "mesh": 1,
      "name": "Object_3"
    },
    {
      "mesh": 2,
      "name": "Object_4"
    },
    {
      "mesh": 3,
      "name": "Object_5"
    },
    {
      "mesh": 4,
      "name": "Object_6"
    }
  ],
  "scene": 0,
  "scenes": [
    {
      "name": "Sketchfab_Scene",
      "nodes": [
        0
      ]
    }
  ]
}
